<svg width="26" height="26" viewBox="0 0 26 26" fill="none" xmlns="http://www.w3.org/2000/svg">
<path d="M13 1C6.37266 1 1 6.37266 1 13C1 19.6273 6.37266 25 13 25C19.6273 25 25 19.6273 25 13C24.9926 6.37578 19.6242 1.00742 13 1ZM23.3783 17.2039L19.9656 17.7928C20.3563 16.3602 20.5672 14.8846 20.5936 13.4H24.19C24.1449 14.7059 23.8701 15.9936 23.3783 17.2039V17.2039ZM1.80996 13.4H5.40645C5.43281 14.8846 5.64375 16.3602 6.03438 17.7928L2.62168 17.2039C2.12988 15.9936 1.85508 14.7059 1.80996 13.4ZM2.62168 8.79609L6.03438 8.20723C5.64375 9.63984 5.43281 11.1154 5.40645 12.6H1.80996C1.85508 11.2941 2.12988 10.0064 2.62168 8.79609ZM13.4 7.42246C14.8373 7.44082 16.2711 7.57168 17.6881 7.81406L19.1 8.05762C19.5338 9.53379 19.7672 11.0615 19.7939 12.6H13.4V7.42246ZM17.8244 7.02559C16.3625 6.77578 14.883 6.64082 13.4 6.62246V1.82246C15.6932 2.04277 17.6852 4.14238 18.8141 7.19805L17.8244 7.02559ZM12.6 6.62246C11.117 6.64082 9.63789 6.77578 8.17598 7.02559L7.18594 7.19688C8.31484 4.14043 10.3068 2.04004 12.6 1.8207V6.62246ZM8.3123 7.81406C9.7291 7.57168 11.1627 7.44082 12.6 7.42246V12.6H6.20605C6.23281 11.0615 6.46621 9.53379 6.9 8.05762L8.3123 7.81406ZM6.20605 13.4H12.6V18.5775C11.1627 18.5592 9.72891 18.4283 8.31191 18.1859L6.9 17.9424C6.46621 16.4662 6.23281 14.9385 6.20605 13.4V13.4ZM8.17559 18.9744C9.6375 19.2246 11.1168 19.3602 12.6 19.3797V24.1797C10.3068 23.9592 8.31484 21.8596 7.18594 18.8039L8.17559 18.9744ZM13.4 19.3797C14.883 19.3602 16.3621 19.2246 17.824 18.9744L18.8141 18.8031C17.6852 21.8596 15.6932 23.96 13.4 24.1793V19.3797ZM17.6877 18.1859C16.2709 18.4283 14.8373 18.5592 13.4 18.5775V13.4H19.7939C19.7672 14.9385 19.5338 16.4662 19.1 17.9424L17.6877 18.1859ZM20.5936 12.6C20.5672 11.1154 20.3563 9.63984 19.9656 8.20723L23.3783 8.79609C23.8701 10.0064 24.1449 11.2941 24.19 12.6H20.5936ZM22.9736 7.91445L19.7023 7.35C19.1143 5.43145 18.0141 3.70957 16.5199 2.36992C19.3139 3.30234 21.6309 5.29277 22.9736 7.91445ZM9.48008 2.36992C7.98594 3.70957 6.88574 5.43145 6.29766 7.35L3.02637 7.91445C4.36914 5.29277 6.68613 3.30234 9.48008 2.36992ZM3.02637 18.0855L6.29766 18.65C6.88574 20.5686 7.98594 22.2904 9.48008 23.6301C6.68613 22.6977 4.36914 20.7072 3.02637 18.0855ZM16.5199 23.6301C18.0141 22.2904 19.1143 20.5686 19.7023 18.65L22.9736 18.0855C21.6309 20.7072 19.3139 22.6977 16.5199 23.6301Z" fill="#389E0D" stroke="#389E0D" stroke-width="0.5"/>
</svg>
