<svg width="24" height="24" viewBox="0 0 24 24" fill="none" xmlns="http://www.w3.org/2000/svg">
<path d="M3 2.40729V23.5925C3 23.8176 3.1791 24 3.40005 24H18.6001C18.8209 24 19 23.8176 19 23.5925V6.48149C19 6.47243 18.9957 6.46471 18.9949 6.45581C18.9929 6.42007 18.986 6.38483 18.9745 6.3511C18.97 6.33801 18.9669 6.32542 18.9613 6.31267C18.9418 6.26837 18.9148 6.22792 18.8812 6.19335L14.8812 2.11932C14.8473 2.08491 14.8074 2.05739 14.7636 2.03776C14.7516 2.03256 14.7394 2.02819 14.7269 2.02433C14.6934 2.01259 14.6587 2.00554 14.6232 2.00319C14.6165 2.00436 14.6086 2 14.6002 2H3.40005C3.1791 2 3 2.18225 3 2.40729ZM17.6344 6.07404H15V3.39085L17.6344 6.07404ZM3.79993 2.81474H14.2001V6.48149C14.2001 6.70636 14.3792 6.88878 14.6 6.88878H18.2001V23.1853H3.79993V2.81474Z" fill="#389E0D"/>
<path d="M19.4 21.1853V22H20.6C20.8209 22 21 21.8178 21 21.5927V0.407454C21 0.182415 20.8209 0 20.6 0H5.40004C5.1791 0 5 0.182415 5 0.407454V1.62965H5.80008V0.81474H20.1999V21.1853H19.4Z" fill="#389E0D"/>
<path d="M6 8H16V9H6V8Z" fill="#389E0D"/>
<path d="M6 6H9V7H6V6Z" fill="#389E0D"/>
<path d="M6 10H12V11H6V10Z" fill="#389E0D"/>
<path d="M13 10H15V11H13V10Z" fill="#389E0D"/>
<path d="M6 13H16V14H6V13Z" fill="#389E0D"/>
<path d="M6 18H16V19H6V18Z" fill="#389E0D"/>
<path d="M10 15H16V16H10V15Z" fill="#389E0D"/>
<path d="M6 15H9V16H6V15Z" fill="#389E0D"/>
<path d="M6 20H8V21H6V20Z" fill="#389E0D"/>
<path d="M8 20H15V21H8V20Z" fill="#389E0D"/>
</svg>
