<svg width="24" height="24" viewBox="0 0 24 24" fill="none" xmlns="http://www.w3.org/2000/svg">
<g clip-path="url(#clip0_1847_1346)">
<path d="M12 0C5.38332 0 0 5.38332 0 12C0 18.6167 5.38332 24 12 24C18.6167 24 24 18.6167 24 12C24 5.38332 18.6167 0 12 0ZM12 22.5C6.2102 22.5 1.50001 17.7898 1.50001 12C1.50001 6.2102 6.2102 1.50001 12 1.50001C17.7898 1.50001 22.5 6.2102 22.5 12C22.5 17.7898 17.7898 22.5 12 22.5V22.5Z" fill="#389E0D"/>
<path d="M12.557 5H11V13.1033L15.8991 18L17 16.8997L12.557 12.459V5Z" fill="#389E0D"/>
</g>
<defs>
<clipPath id="clip0_1847_1346">
<rect width="24" height="24" fill="white"/>
</clipPath>
</defs>
</svg>
